<svg xmlns="http://www.w3.org/2000/svg" viewBox="0 0 2900 2900">
  <path d="M2038.7,406.5c104.3,71.4,208.5,143.6,312.6,215.6,34.4,34.1,28.1,98.5-14.3,122.8l-502.6,301.7c-18.2,6.2-42.1,6.9-60.2,0-28-10.7-78.9-47.1-108-64.4-19.4-11.5-42.1-25.1-63.3-37.7-112.2-66.3-221.9-136.8-335.7-200.4-46.8-15.5-97.6,20.5-103.8,67.8l-.7,1271.6c3.9,50.9,58.9,90.4,108.3,70.9l497.1-296.6c19.8-10.4,45.3-12.4,66.3-4.4l502.6,301.6c43.7,25.6,48.8,91.3,11.4,125.2-169.6,102.4-331.3,246.5-500.3,345.9-45.5,26.8-86.1,4.5-126.5-18.6-5.7-3.3-6.2-8.8-10.9-11.5-162.1-93.1-319.6-189.1-484.3-287.6-198.1-118.5-412.9-239.3-611.8-365.6-44.1-28-88.8-45.7-88-106.5l.6-788.1c4-24.8,17.7-43.9,35.1-60.6,405.2-237.5,804.8-483.8,1210.2-723,23.8-4.8,46.8-5.4,68.8,5.2,54.7,26.2,142.6,99.1,197.3,136.6Z" fill="currentColor"/>
</svg>
